0
SECTION
2
HEADER
9
$ACADVER
1
AC1009
9
$INSBASE
10
0.000
20
0.000
30
0.000
9
$EXTMIN
10
7513938.660
20
4691208.600
9
$EXTMAX
10
7513938.660
20
4691208.600
0
ENDSEC
0
SECTION
2
TABLES
0
TABLE
2
LTYPE
70
1
0
LTYPE
2
continuous
70
64
3
Solid line
72
65
73
0
40
0.000
0
ENDTAB
0
TABLE
2
LAYER
70
1
0
LAYER
2
Parcela
70
64
62
7
6
continuous
0
ENDTAB
0
TABLE
2
STYLE
70
1
0
STYLE
2
ANNOTATIVE
70
0
40
0
41
40
50
50
71
0
42
1
3
ARIAL.TTF
4

0
ENDTAB
0
TABLE
2
VIEW
70
0
0
ENDTAB
0
ENDSEC
0
SECTION
2
BLOCKS
0
ENDSEC
0
SECTION
2
ENTITIES
0
POLYLINE
66
1
8
Parcela Baze
70
0
10
7512828.870
20
4693953.689
0
VERTEX
8
Parcela Baze
10
7512828.870
20
4693953.689
0
VERTEX
8
Parcela Baze
10
7512824.699
20
4693950.281
0
VERTEX
8
Parcela Baze
10
7512809.940
20
4693937.281
0
VERTEX
8
Parcela Baze
10
7512791.299
20
4693921.002
0
VERTEX
8
Parcela Baze
10
7512787.489
20
4693917.673
0
VERTEX
8
Parcela Baze
10
7512767.560
20
4693952.632
0
VERTEX
8
Parcela Baze
10
7512764.560
20
4693957.242
0
VERTEX
8
Parcela Baze
10
7512748.891
20
4693978.351
0
VERTEX
8
Parcela Baze
10
7512752.770
20
4693981.520
0
VERTEX
8
Parcela Baze
10
7512753.164
20
4693981.841
0
VERTEX
8
Parcela Baze
10
7512755.111
20
4693983.431
0
VERTEX
8
Parcela Baze
10
7512778.560
20
4694002.550
0
VERTEX
8
Parcela Baze
10
7512790.162
20
4694012.008
0
VERTEX
8
Parcela Baze
10
7512798.542
20
4693999.828
0
VERTEX
8
Parcela Baze
10
7512806.891
20
4693987.189
0
VERTEX
8
Parcela Baze
10
7512820.691
20
4693965.809
0
VERTEX
8
Parcela Baze
10
7512828.870
20
4693953.689
0
SEQEND
0
TEXT
8
Nr Parceles Baze
10
7512790.181
20
4693962.913
40
0.800000
1
185-1
0
TEXT
8
Nr e Pikave Gjeodezike te Parceles Baze
10
7512787.489
20
4693917.673
40
0.800000
1
49732
0
POINT
8
Pikat
10
7512787.489
20
4693917.673
0
TEXT
8
Nr e Pikave Gjeodezike te Parceles Baze
10
7512791.299
20
4693921.002
40
0.800000
1
49733
0
POINT
8
Pikat
10
7512791.299
20
4693921.002
0
TEXT
8
Nr e Pikave Gjeodezike te Parceles Baze
10
7512809.940
20
4693937.281
40
0.800000
1
49734
0
POINT
8
Pikat
10
7512809.940
20
4693937.281
0
TEXT
8
Nr e Pikave Gjeodezike te Parceles Baze
10
7512824.699
20
4693950.281
40
0.800000
1
49735
0
POINT
8
Pikat
10
7512824.699
20
4693950.281
0
TEXT
8
Nr e Pikave Gjeodezike te Parceles Baze
10
7512828.870
20
4693953.689
40
0.800000
1
49736
0
POINT
8
Pikat
10
7512828.870
20
4693953.689
0
TEXT
8
Nr e Pikave Gjeodezike te Parceles Baze
10
7512820.691
20
4693965.809
40
0.800000
1
54845
0
POINT
8
Pikat
10
7512820.691
20
4693965.809
0
TEXT
8
Nr e Pikave Gjeodezike te Parceles Baze
10
7512806.891
20
4693987.189
40
0.800000
1
54846
0
POINT
8
Pikat
10
7512806.891
20
4693987.189
0
TEXT
8
Nr e Pikave Gjeodezike te Parceles Baze
10
7512798.542
20
4693999.828
40
0.800000
1
54847
0
POINT
8
Pikat
10
7512798.542
20
4693999.828
0
TEXT
8
Nr e Pikave Gjeodezike te Parceles Baze
10
7512767.560
20
4693952.632
40
0.800000
1
54849
0
POINT
8
Pikat
10
7512767.560
20
4693952.632
0
TEXT
8
Nr e Pikave Gjeodezike te Parceles Baze
10
7512764.560
20
4693957.242
40
0.800000
1
54850
0
POINT
8
Pikat
10
7512764.560
20
4693957.242
0
TEXT
8
Nr e Pikave Gjeodezike te Parceles Baze
10
7512748.891
20
4693978.351
40
0.800000
1
54851
0
POINT
8
Pikat
10
7512748.891
20
4693978.351
0
TEXT
8
Nr e Pikave Gjeodezike te Parceles Baze
10
7512752.770
20
4693981.520
40
0.800000
1
54852
0
POINT
8
Pikat
10
7512752.770
20
4693981.520
0
TEXT
8
Nr e Pikave Gjeodezike te Parceles Baze
10
7512753.164
20
4693981.841
40
0.800000
1
54853
0
POINT
8
Pikat
10
7512753.164
20
4693981.841
0
TEXT
8
Nr e Pikave Gjeodezike te Parceles Baze
10
7512755.111
20
4693983.431
40
0.800000
1
54854
0
POINT
8
Pikat
10
7512755.111
20
4693983.431
0
TEXT
8
Nr e Pikave Gjeodezike te Parceles Baze
10
7512778.560
20
4694002.550
40
0.800000
1
54855
0
POINT
8
Pikat
10
7512778.560
20
4694002.550
0
TEXT
8
Nr e Pikave Gjeodezike te Parceles Baze
10
7512790.162
20
4694012.008
40
0.800000
1
54856
0
POINT
8
Pikat
10
7512790.162
20
4694012.008
0
ENDSEC
0
EOF
