0
SECTION
2
HEADER
9
$ACADVER
1
AC1009
9
$INSBASE
10
0.000
20
0.000
30
0.000
9
$EXTMIN
10
7513938.660
20
4691208.600
9
$EXTMAX
10
7513938.660
20
4691208.600
0
ENDSEC
0
SECTION
2
TABLES
0
TABLE
2
LTYPE
70
1
0
LTYPE
2
continuous
70
64
3
Solid line
72
65
73
0
40
0.000
0
ENDTAB
0
TABLE
2
LAYER
70
1
0
LAYER
2
Parcela
70
64
62
7
6
continuous
0
ENDTAB
0
TABLE
2
STYLE
70
1
0
STYLE
2
ANNOTATIVE
70
0
40
0
41
40
50
50
71
0
42
1
3
ARIAL.TTF
4

0
ENDTAB
0
TABLE
2
VIEW
70
0
0
ENDTAB
0
ENDSEC
0
SECTION
2
BLOCKS
0
ENDSEC
0
SECTION
2
ENTITIES
0
POLYLINE
66
1
8
Parcela Baze
70
0
10
7512752.770
20
4693981.520
0
VERTEX
8
Parcela Baze
10
7512752.770
20
4693981.520
0
VERTEX
8
Parcela Baze
10
7512748.891
20
4693978.351
0
VERTEX
8
Parcela Baze
10
7512746.564
20
4693981.605
0
VERTEX
8
Parcela Baze
10
7512738.892
20
4693992.331
0
VERTEX
8
Parcela Baze
10
7512728.902
20
4694006.981
0
VERTEX
8
Parcela Baze
10
7512721.847
20
4694017.328
0
VERTEX
8
Parcela Baze
10
7512714.821
20
4694027.634
0
VERTEX
8
Parcela Baze
10
7512707.753
20
4694038.000
0
VERTEX
8
Parcela Baze
10
7512707.779
20
4694038.022
0
VERTEX
8
Parcela Baze
10
7512711.590
20
4694041.270
0
VERTEX
8
Parcela Baze
10
7512712.171
20
4694041.721
0
VERTEX
8
Parcela Baze
10
7512718.365
20
4694032.669
0
VERTEX
8
Parcela Baze
10
7512720.180
20
4694034.030
0
VERTEX
8
Parcela Baze
10
7512726.369
20
4694025.061
0
VERTEX
8
Parcela Baze
10
7512728.085
20
4694022.576
0
VERTEX
8
Parcela Baze
10
7512726.116
20
4694020.906
0
VERTEX
8
Parcela Baze
10
7512733.197
20
4694010.679
0
VERTEX
8
Parcela Baze
10
7512743.087
20
4693996.394
0
VERTEX
8
Parcela Baze
10
7512753.164
20
4693981.841
0
VERTEX
8
Parcela Baze
10
7512752.770
20
4693981.520
0
SEQEND
0
TEXT
8
Nr Parceles Baze
10
7512729.798
20
4694011.312
40
0.800000
1
185-41
0
TEXT
8
Nr e Pikave Gjeodezike te Parceles Baze
10
7512748.891
20
4693978.351
40
0.800000
1
54851
0
POINT
8
Pikat
10
7512748.891
20
4693978.351
0
TEXT
8
Nr e Pikave Gjeodezike te Parceles Baze
10
7512752.770
20
4693981.520
40
0.800000
1
54852
0
POINT
8
Pikat
10
7512752.770
20
4693981.520
0
TEXT
8
Nr e Pikave Gjeodezike te Parceles Baze
10
7512753.164
20
4693981.841
40
0.800000
1
54853
0
POINT
8
Pikat
10
7512753.164
20
4693981.841
0
TEXT
8
Nr e Pikave Gjeodezike te Parceles Baze
10
7512728.085
20
4694022.576
40
0.800000
1
55714
0
POINT
8
Pikat
10
7512728.085
20
4694022.576
0
TEXT
8
Nr e Pikave Gjeodezike te Parceles Baze
10
7512726.369
20
4694025.061
40
0.800000
1
55715
0
POINT
8
Pikat
10
7512726.369
20
4694025.061
0
TEXT
8
Nr e Pikave Gjeodezike te Parceles Baze
10
7512712.171
20
4694041.721
40
0.800000
1
55734
0
POINT
8
Pikat
10
7512712.171
20
4694041.721
0
TEXT
8
Nr e Pikave Gjeodezike te Parceles Baze
10
7512711.590
20
4694041.270
40
0.800000
1
55735
0
POINT
8
Pikat
10
7512711.590
20
4694041.270
0
TEXT
8
Nr e Pikave Gjeodezike te Parceles Baze
10
7512707.753
20
4694038.000
40
0.800000
1
55739
0
POINT
8
Pikat
10
7512707.753
20
4694038.000
0
TEXT
8
Nr e Pikave Gjeodezike te Parceles Baze
10
7512714.821
20
4694027.634
40
0.800000
1
55740
0
POINT
8
Pikat
10
7512714.821
20
4694027.634
0
TEXT
8
Nr e Pikave Gjeodezike te Parceles Baze
10
7512707.779
20
4694038.022
40
0.800000
1
55743
0
POINT
8
Pikat
10
7512707.779
20
4694038.022
0
TEXT
8
Nr e Pikave Gjeodezike te Parceles Baze
10
7512720.180
20
4694034.030
40
0.800000
1
55744
0
POINT
8
Pikat
10
7512720.180
20
4694034.030
0
TEXT
8
Nr e Pikave Gjeodezike te Parceles Baze
10
7512746.564
20
4693981.605
40
0.800000
1
55747
0
POINT
8
Pikat
10
7512746.564
20
4693981.605
0
TEXT
8
Nr e Pikave Gjeodezike te Parceles Baze
10
7512738.892
20
4693992.331
40
0.800000
1
55748
0
POINT
8
Pikat
10
7512738.892
20
4693992.331
0
TEXT
8
Nr e Pikave Gjeodezike te Parceles Baze
10
7512728.902
20
4694006.981
40
0.800000
1
55749
0
POINT
8
Pikat
10
7512728.902
20
4694006.981
0
TEXT
8
Nr e Pikave Gjeodezike te Parceles Baze
10
7512721.847
20
4694017.328
40
0.800000
1
55750
0
POINT
8
Pikat
10
7512721.847
20
4694017.328
0
TEXT
8
Nr e Pikave Gjeodezike te Parceles Baze
10
7512718.365
20
4694032.669
40
0.800000
1
55751
0
POINT
8
Pikat
10
7512718.365
20
4694032.669
0
TEXT
8
Nr e Pikave Gjeodezike te Parceles Baze
10
7512726.116
20
4694020.906
40
0.800000
1
55752
0
POINT
8
Pikat
10
7512726.116
20
4694020.906
0
TEXT
8
Nr e Pikave Gjeodezike te Parceles Baze
10
7512733.197
20
4694010.679
40
0.800000
1
55753
0
POINT
8
Pikat
10
7512733.197
20
4694010.679
0
TEXT
8
Nr e Pikave Gjeodezike te Parceles Baze
10
7512743.087
20
4693996.394
40
0.800000
1
55754
0
POINT
8
Pikat
10
7512743.087
20
4693996.394
0
ENDSEC
0
EOF
